<svg xmlns="http://www.w3.org/2000/svg" width="108" height="108" viewBox="0 0 108 108">
  <g fill="none" transform="translate(.25)">
    <path fill="#00497E" d="M53.8457143,0 C83.5839331,0 107.691429,24.1074955 107.691429,53.8457143 C107.691429,83.5839331 83.5839331,107.691429 53.8457143,107.691429 C24.1074955,107.691429 0,83.5839331 0,53.8457143 C0,24.1074955 24.1074955,0 53.8457143,0 M53.8457143,1.53844898 C82.7347092,1.53844898 106.15298,24.9536424 106.15298,53.8457143 C106.15298,82.7377861 82.7347092,106.15298 53.8457143,106.15298 C24.9567193,106.15298 1.53844898,82.7377861 1.53844898,53.8457143 C1.53844898,24.9536424 24.9567193,1.53844898 53.8457143,1.53844898"/>
    <path fill="#FFF" d="M70.2203478,44.619087 C68.7334391,39.6588565 67.9307435,37.938013 67.1108261,32.8247826 C65.7191913,24.134087 60.7098087,16.121913 54.6121304,9.58282609 C52.5246783,7.34525652 49.7500565,5.21153478 46.7211739,5.65331304 C43.9841,6.0517487 41.9341217,8.52897391 41.1315,11.1737304 C40.3288783,13.818413 40.5107487,16.6478783 40.5858148,19.4113391 C40.6666609,22.287 40.4760983,24.0771 40.1758265,25.3387957 C39.5030996,24.6371983 38.9025265,24.1030435 38.4434526,23.7248304 L38.4434526,21.2417957 C38.9920278,21.0743383 39.4077961,20.5806213 39.4077961,19.9829826 L39.4077961,19.7317965 C39.4077961,19.1254804 38.9920352,18.6346313 38.4434526,18.4701009 L38.4434526,17.2488357 C38.9920278,17.0813783 39.4077961,16.5876613 39.4077961,15.9900226 L39.4077961,15.7388365 C39.4077961,15.1325204 38.9920352,14.6416713 38.4434526,14.4771409 L38.4434526,13.2558757 C38.9920278,13.0884183 39.4077961,12.5947013 39.4077961,11.9970626 L39.4077961,11.7458765 C39.4077961,11.1395604 38.9920352,10.6487113 38.4434526,10.4841809 L38.4463397,9.26868087 C38.9949149,9.10122348 39.4106831,8.60750652 39.4106831,8.00986783 L39.4106831,7.75868174 C39.4106831,7.15236565 38.9949223,6.66151652 38.4463397,6.49698609 L38.4463397,5.27572087 C38.9949149,5.10826348 39.4106831,4.61454652 39.4106831,4.01690783 L39.4106831,3.76572174 C39.4106831,3.15940565 38.9949223,2.66855652 38.4463397,2.50402609 L38.4463397,0.465652174 L33.9913788,0.465652174 L33.9913788,2.50402609 C33.437031,2.66571087 33.0270353,3.15653783 33.0270353,3.76572174 L33.0270353,4.01690783 C33.0270353,4.6145613 33.4370236,5.11119043 33.9913788,5.27572087 L33.9913788,6.49698609 C33.437031,6.65867087 33.0270353,7.14949783 33.0270353,7.75868174 L33.0270353,8.00986783 C33.0270353,8.6075213 33.4370236,9.10415043 33.9913788,9.26868087 L33.9884917,10.4899461 C33.4341439,10.6516309 33.0241483,11.1424578 33.0241483,11.7516417 L33.0241483,12.0028278 C33.0241483,12.6004813 33.4341365,13.0971104 33.9884917,13.2616409 L33.9884917,14.4829061 C33.4341439,14.6445909 33.0241483,15.1354178 33.0241483,15.7446017 L33.0241483,15.9957878 C33.0241483,16.5934413 33.4341365,17.0900704 33.9884917,17.2546009 L33.9884917,18.4758661 C33.4341439,18.6375509 33.0241483,19.1283778 33.0241483,19.7375617 L33.0241483,19.9887478 C33.0241483,20.716333 33.4139213,21.0598957 33.9884917,21.2216174 L33.9884917,23.7305957 C33.5323078,24.1059335 32.9346396,24.637213 32.2648396,25.3330304 C31.1619091,20.7972087 32.6806004,15.7154652 31.3004961,11.1772043 C30.4978743,8.53252174 28.4450135,6.05525217 25.7108222,5.65678696 C22.6820874,5.21503826 19.9074657,7.34873043 17.8198657,9.5863 C11.7249222,16.1230217 6.71590913,24.1353435 5.32117,32.8282565 C4.5011787,37.9415609 3.70143957,39.6623304 2.21164826,44.6225609 C0.724739565,49.5827913 0.352291739,58.0193 1.13761783,63.1385174 C1.36570609,64.6196609 1.85365043,66.2220957 3.1326787,67.0016565 C3.79096304,67.4029822 4.58203957,67.5329065 5.35295261,67.5357965 C9.50191348,67.5617814 12.9290396,64.3655922 16.9136917,63.2078183 C21.3975526,61.9028096 30.5676483,63.5398504 32.3430396,54.9968183 C32.5220496,54.1335139 32.5740178,53.2413835 32.8223213,52.3925661 C33.1456909,51.2809878 33.7981952,50.2848617 34.0782517,49.161753 C34.2861322,48.3273487 34.2832422,47.4582791 34.2803596,46.5978574 C34.1850783,29.3982922 34.450707,30.218727 33.3593291,28.1513791 C34.0205035,27.2650139 34.80869,26.3468661 35.7354857,25.451853 L36.6998291,25.451853 C37.6237422,26.3439835 38.4119509,27.2592487 39.0702204,28.1456139 C38.6226991,29.0637617 38.2473465,30.0281052 38.2358161,32.046227 C38.2098305,36.8967704 38.1809586,41.7473139 38.15497,46.598227 C38.1491952,47.4586487 38.1463081,48.3276443 38.3570778,49.1621226 C38.6371417,50.2852313 39.2896387,51.2813574 39.6158909,52.3929357 C40.0172165,53.7643922 39.8815196,58.7592878 44.9399213,61.1848922 C48.1937952,62.7440139 52.0626996,62.2011965 55.5272257,63.208853 C59.5115822,64.3695096 62.9384865,67.5627748 67.0879648,67.5369885 C67.8588778,67.5310565 68.6499691,67.404017 69.3082387,67.0026913 C70.5873039,66.2231304 71.0752039,64.617813 71.3032996,63.1395522 C72.0799778,58.0204826 71.7103978,49.5809435 70.2206213,44.6206391 L70.2203478,44.619087 Z" transform="translate(17.703 16)"/>
  </g>
</svg>
