<svg xmlns="http://www.w3.org/2000/svg" width="109" height="108" viewBox="0 0 109 108">
  <g fill="none" transform="translate(.5)">
    <path fill="#00497E" d="M53.8457143,0 C83.5839331,0 107.691429,24.1074955 107.691429,53.8457143 C107.691429,83.5839331 83.5839331,107.691429 53.8457143,107.691429 C24.1074955,107.691429 0,83.5839331 0,53.8457143 C0,24.1074955 24.1074955,0 53.8457143,0 M53.8457143,1.53844898 C82.7347092,1.53844898 106.15298,24.9536424 106.15298,53.8457143 C106.15298,82.7377861 82.7347092,106.15298 53.8457143,106.15298 C24.9567193,106.15298 1.53844898,82.7377861 1.53844898,53.8457143 C1.53844898,24.9536424 24.9567193,1.53844898 53.8457143,1.53844898"/>
    <g fill="#FFF" transform="translate(19 16)">
      <path d="M66.975,19.94696 C64.96518,16.618996 60.892036,14.858532 55.19196,14.858532 C53.185104,14.858532 51.000104,15.0841608 48.702244,15.5175964 C45.608816,6.4097564 40.642444,0.5820764 34.939404,0.5820764 C29.370048,0.5820764 24.522084,6.1157884 21.410644,14.8290364 C19.36518,14.5529436 17.396932,14.4015364 15.553324,14.4015364 C8.164072,14.4015364 3.019404,16.6933924 1.066204,20.8585724 C-1.314724,25.9381084 1.7104256,32.7601724 8.404916,39.3356924 C2.339736,46.6239404 -0.011324,53.7848124 2.909736,58.6237324 C4.919556,61.9546604 8.995664,63.7121604 14.695816,63.7121604 C16.958032,63.7121604 19.44878,63.4004388 22.064244,62.8601244 C25.184424,70.5908444 29.759244,75.4206444 34.951564,75.4206444 C41.01378,75.4206444 46.247444,68.8626804 49.281364,58.7568844 C51.029972,58.9706344 52.739972,59.1042272 54.337112,59.1042272 C61.726364,59.1042272 66.867992,56.8094072 68.818912,52.6501552 C70.932624,48.1495112 68.7981313,42.2890752 63.64734,36.4408752 C68.06484,30.1471632 69.519556,24.1653552 66.975304,19.9465952 L66.975,19.94696 Z M55.195,18.848532 C59.357216,18.848532 62.331856,19.967784 63.56412,22.010284 C65.0693,24.51 64.03912,28.707784 60.80912,33.511364 C58.122368,30.973116 54.901336,28.491184 51.22932,26.169612 C50.8790056,23.779792 50.418856,21.508684 49.863676,19.371184 C51.742928,19.0416556 53.544964,18.848684 55.195532,18.848684 L55.195,18.848532 Z M41.73464,50.531412 C40.734176,51.1370408 39.730748,51.698164 38.715388,52.24734 C35.616032,51.255768 32.478068,50.10984 29.355228,48.643268 C26.7368,47.411232 24.32912,46.10198 22.0818,44.745304 C21.8977356,42.587056 21.7968,40.33966 21.7968,37.99734 C21.7968,35.966696 21.8828928,34.019196 22.0224212,32.12216 C23.9105652,30.726876 25.9530652,29.358268 28.1439932,28.031232 C31.0978852,26.244016 34.1052812,24.718088 37.0679132,23.41484 C38.2197692,23.88984 39.3716252,24.311412 40.5176292,24.848732 C43.0203092,26.021412 45.3389172,27.274196 47.5030932,28.568552 C47.8593432,31.51948 48.0790288,34.663372 48.0790288,37.994072 C48.0790288,41.031108 47.897936,43.90482 47.5951216,46.632992 C45.7812296,47.965956 43.8248376,49.275208 41.7348376,50.530956 L41.73464,50.531412 Z M46.793352,52.048448 C46.650852,52.784698 46.5053804,53.503164 46.3391304,54.200768 C45.6028804,54.058268 44.8636664,53.9217036 44.1125584,53.7465464 C45.0239504,53.1913892 45.9205224,52.6302584 46.7933064,52.0484024 L46.793352,52.048448 Z M33.659792,54.779736 C30.569328,56.181024 27.520436,57.31502 24.611232,58.137416 C23.818552,55.616952 23.171412,52.790664 22.690484,49.697616 C24.293628,50.582332 25.935304,51.449188 27.666128,52.256688 C29.646308,53.191868 31.656128,54.017152 33.66002,54.780116 L33.659792,54.779736 Z M17.901952,42.029216 C16.509632,41.040608 15.230096,40.043108 14.036668,39.045608 C15.20342,37.85218 16.473988,36.64986 17.86038,35.453392 C17.83663,36.2995 17.8069429,37.13664 17.8069429,38.000608 C17.8069429,39.363288 17.8425671,40.705144 17.901952,42.029216 L17.901952,42.029216 Z M22.601488,26.841376 C22.9933592,24.16952 23.51288,21.68166 24.151204,19.413592 C26.65092,19.912342 29.224812,20.586272 31.866724,21.46202 C29.934044,22.432768 27.992472,23.459984 26.092472,24.61184 C24.887188,25.3391828 23.7234,26.081376 22.601184,26.841376 L22.601488,26.841376 Z M42.382008,21.316556 C43.59626,20.9038988 44.78376,20.538772 45.950436,20.22702 C46.2295004,21.283876 46.4818432,22.382304 46.7134,23.525268 C45.306184,22.765268 43.87822,22.023052 42.382008,21.316556 L42.382008,21.316556 Z M51.7991604,31.344756 C54.319632,33.114112 56.52842,34.922076 58.392776,36.721148 C56.614528,38.849756 54.435456,41.040684 51.900096,43.216792 C52.0010316,41.506792 52.0752532,39.77004 52.0752532,37.994756 C52.0752532,35.714756 51.968382,33.50004 51.7991604,31.344756 L51.7991604,31.344756 Z M34.942368,4.569956 C38.46626,4.569956 42.215796,8.996348 44.807168,16.415316 C42.310416,17.0892232 39.721704,17.982816 37.103048,19.057532 C33.1398,17.51382 29.179288,16.30846 25.405888,15.521784 C27.976816,8.655032 31.56014,4.570184 34.941608,4.570184 L34.942368,4.569956 Z M4.682208,22.548516 C5.923136,19.9063 9.883496,18.389264 15.557048,18.389264 C17.014728,18.389264 18.600012,18.5525424 20.200192,18.7395784 C19.276944,22.1803264 18.579264,25.9684704 18.187408,30.0445784 C15.533336,32.1018984 13.14648,34.2275424 11.062408,36.3739344 C5.549444,30.9262544 3.197928,25.7103744 4.682588,22.5487744 L4.682208,22.548516 Z M14.686848,59.720116 C10.521668,59.720116 7.549992,58.5979 6.320768,56.5554 C4.500948,53.542152 6.344518,48.05024 11.34984,42.0052 C13.430948,43.756772 15.755484,45.475664 18.31752,47.117416 C18.8014272,51.469632 19.605948,55.516176 20.704376,59.093496 C18.566876,59.5031816 16.54216,59.7199032 14.686696,59.7199032 L14.686848,59.720116 Z M34.942368,71.422596 C32.647548,71.422596 30.26662,69.543344 28.161724,66.197596 L28.1468797,66.173846 C27.3690957,64.938846 26.6387357,63.50199 25.9589157,61.881062 C30.1775237,60.66681 34.6244357,58.87967 39.0483957,56.587814 C41.1621077,57.2112496 43.2521077,57.73967 45.2768237,58.13753 C42.6821077,66.40861 38.6861797,71.42233 34.9423437,71.42233 L34.942368,71.422596 Z M65.202528,50.949716 C63.9616,53.586004 59.995312,55.106004 54.330728,55.106004 C53.068976,55.106004 51.670728,54.939754 50.296192,54.797254 C50.7266636,52.873542 51.0948,50.869574 51.376836,48.77661 C55.2273,45.825682 58.513692,42.72929 61.144356,39.64141 C64.94732,44.142054 66.455464,48.27729 65.202604,50.94945 L65.202528,50.949716 Z"/>
      <path d="M35.05196,30.36732 C30.833352,30.36732 27.39876,33.799176 27.39876,38.02052 C27.39876,42.242092 30.83358,45.67676 35.05196,45.67676 C39.273532,45.67676 42.70516,42.24194 42.70516,38.02052 C42.70516,33.795984 39.273304,30.36732 35.05196,30.36732 Z M35.05196,41.67536 C33.033248,41.67536 31.391496,40.036648 31.391496,38.014896 C31.391496,35.996184 33.033248,34.354432 35.05196,34.354432 C37.070672,34.354432 38.712424,35.996184 38.712424,38.014896 C38.712424,40.036648 37.070672,41.67536 35.05196,41.67536 Z"/>
    </g>
  </g>
</svg>
