<svg xmlns="http://www.w3.org/2000/svg" width="109" height="108" viewBox="0 0 109 108">
  <g fill="none" transform="translate(.5)">
    <path fill="#00497E" d="M53.8457143,0 C83.5839331,0 107.691429,24.1074955 107.691429,53.8457143 C107.691429,83.5839331 83.5839331,107.691429 53.8457143,107.691429 C24.1074955,107.691429 0,83.5839331 0,53.8457143 C0,24.1074955 24.1074955,0 53.8457143,0 M53.8457143,1.53844898 C82.7347092,1.53844898 106.15298,24.9536424 106.15298,53.8457143 C106.15298,82.7377861 82.7347092,106.15298 53.8457143,106.15298 C24.9567193,106.15298 1.53844898,82.7377861 1.53844898,53.8457143 C1.53844898,24.9536424 24.9567193,1.53844898 53.8457143,1.53844898"/>
    <g fill="#FFF" transform="translate(21 14)">
      <path d="M33.2475248 35.3565743C26.3105733 35.3565743 20.9972574 30.0910337 20.4891485 22.9364554 19.0831396 22.1797851 18.1909495 20.4180277 18.1909495 18.7917901L18.1909495 15.7792752C18.1909495 14.7035733 18.1909495 12.0609733 21.2034644 11.4087436L21.2006405 7.95302475C21.2006405 4.14437624 21.6636629.722410891 27.2255979.722410891L39.2727662.722410891C44.8375345.722410891 45.2949048 4.14430396 45.2949048 7.95013366L45.2949048 11.4030337C48.3074197 12.0608721 48.3074197 14.7006822 48.3074197 15.779203L48.3074197 18.7917178C48.3074197 20.4179554 47.4124108 22.1825317 46.0064019 22.9363832 45.4982062 30.0878535 40.184688 35.3565743 33.2480256 35.3565743L33.2475248 35.3565743zM56.5966832 33.8488713C55.2753832 30.1305693 52.2741436 27.8267327 48.3043168 27.8267327L48.0219875 27.8267327C47.2004123 30.1560109 45.9044816 32.1972644 44.2585123 33.8488713L56.5966832 33.8488713zM22.2339208 33.8488713C20.5879515 32.1943733 19.2948396 30.1531198 18.4732644 27.8267327L18.190935 27.8267327C14.2185063 27.8267327 11.2201578 30.1333881 9.89856871 33.8488713L22.2339208 33.8488713zM14.4019604 48.9085545L27.2253861 48.9085545 27.2253861 45.8960396 18.1907327 45.8960396C16.2765426 45.8960396 15.1217693 47.1863327 14.4018158 48.9085545L14.4019604 48.9085545zM20.319297 65.8344356C20.6383359 65.5746857 21.0364245 64.8575366 21.4429911 63.9654188L17.9053822 63.9654188C18.8371079 64.9874911 19.7235881 65.7412703 20.319297 65.8344356L20.319297 65.8344356zM49.4340099 45.8960396L39.2703861 45.8960396 39.2703861 48.9085545 53.096297 48.9085545C52.3396267 46.9152931 51.1341149 45.8960396 49.4344436 45.8960396L49.4340099 45.8960396zM15.5822475 60.9528367L22.6461901 60.9528367C22.8353541 60.4361651 23.0160471 59.9335782 23.1741536 59.5072871 23.3661363 58.9652079 23.5524815 58.4485703 23.7416454 57.9403168L13.9025464 57.9431407C14.3119319 58.8861417 14.8963583 59.9110328 15.5824138 60.9528367L15.5822475 60.9528367zM13.317802 54.9306931L24.9414257 54.9306931C25.5399751 53.6122119 26.1780168 52.5647703 26.9205931 51.9181782L13.5890584 51.9181782C13.4281259 52.9543446 13.3462503 53.9848733 13.3180188 54.9306931L13.317802 54.9306931zM46.7286733 65.8344356C47.3272154 65.7469151 48.2391228 64.9930564 49.2103842 63.9654188L45.5118139 63.9654188C45.9663726 64.871703 46.3927287 65.5944752 46.7286733 65.8344356zM39.5833465 51.9181782C40.3484733 52.5703646 41.0204347 53.6150307 41.6613168 54.9306931L54.0192772 54.9306931C53.9966906 53.826803 53.9317567 52.8131871 53.8159975 51.9181782L39.5833465 51.9181782z"/>
      <path d="M64.8688119,36.8613861 L1.62623762,36.8613861 C0.796205941,36.8613861 0.121425743,37.5361591 0.121425743,38.366198 L0.121425743,71.492297 C0.121425743,72.3195099 0.796198713,72.9971089 1.62623762,72.9971089 L64.8688119,72.9971089 C65.6960248,72.9971089 66.3736238,72.3195099 66.3736238,71.492297 L66.3736238,38.366198 C66.3736238,37.5361663 65.6960248,36.8613861 64.8688119,36.8613861 Z M30.2350099,52.6720297 C30.2350099,53.4992426 29.5602369,54.1768416 28.730198,54.1768416 C28.1316558,54.6088137 26.7990228,58.3045218 26.0085267,60.5151931 C24.3371158,65.176496 23.012997,68.8581535 20.449396,68.8581535 C16.1635733,68.8581535 10.2857723,59.2561238 10.2857723,55.8677673 C10.2857723,47.6151535 13.168405,42.8744901 18.1914554,42.8744901 L28.7309208,42.8744901 C29.5609525,42.8744901 30.2357327,43.5520891 30.2357327,44.379302 L30.2350099,52.6720297 Z M46.6130297,68.8585871 C44.0833267,68.8585871 42.6321446,65.1994802 40.7856782,60.5632574 C39.8963069,58.3271446 38.4084079,54.5947485 37.5727386,54.140197 C36.7483446,54.140197 36.2570762,53.4993004 36.2570762,52.6692109 L36.2570762,44.3913 C36.2570762,43.5640871 36.9318492,42.8864881 37.7618881,42.8864881 L49.4310465,42.8864881 C54.4932713,42.8864881 57.0512384,47.2570198 57.0512384,55.8768743 C57.056881,59.5359089 50.6450871,68.8585871 46.6136802,68.8585871 L46.6130297,68.8585871 Z"/>
      <path d="M43.5896733,59.453802 C43.7731924,59.9055347 43.9792909,60.4165347 44.1938675,60.9529762 L51.6217982,60.9529762 C52.3417445,59.9111723 52.9544457,58.8778248 53.3976497,57.9404614 L42.9853923,57.9432853 C43.1802011,58.4289015 43.380662,58.9370971 43.5895865,59.4537348 L43.5896733,59.453802 Z"/>
    </g>
  </g>
</svg>
