<svg xmlns="http://www.w3.org/2000/svg" width="109" height="108" viewBox="0 0 109 108">
  <g fill="none" transform="translate(.75)">
    <path fill="#00497E" d="M53.8457143,0 C83.5839331,0 107.691429,24.1074955 107.691429,53.8457143 C107.691429,83.5839331 83.5839331,107.691429 53.8457143,107.691429 C24.1074955,107.691429 0,83.5839331 0,53.8457143 C0,24.1074955 24.1074955,0 53.8457143,0 M53.8457143,1.53844898 C82.7347092,1.53844898 106.15298,24.9536424 106.15298,53.8457143 C106.15298,82.7377861 82.7347092,106.15298 53.8457143,106.15298 C24.9567193,106.15298 1.53844898,82.7377861 1.53844898,53.8457143 C1.53844898,24.9536424 24.9567193,1.53844898 53.8457143,1.53844898"/>
    <g fill="#FFF" transform="translate(33 14)">
      <path d="M41.2166327,14.4077143 C41.2166327,21.2538857 35.6452041,26.8160816 28.8082653,26.8160816 L27.9688102,26.8160816 C24.866002,26.8160816 22.3383245,29.3437592 22.3383245,32.4465673 L22.3383245,63.0766898 L15.2931735,63.0766898 L15.2931735,32.4465673 C15.2931735,25.4698653 20.9827163,19.7835061 27.9689694,19.7835061 L28.8115286,19.7835061 C31.7713898,19.7835061 34.1839776,17.3709184 34.1839776,14.4110571 C34.1839776,11.8833796 32.4179939,9.75366122 30.0520469,9.20336327 C30.0862468,8.97951122 30.1111192,8.75877122 30.1111192,8.52559102 L30.1111192,2.54068286 C30.1111192,2.37590388 30.098683,2.22355714 30.0862468,2.07121837 C36.3260876,2.71479 41.2163692,8.00638163 41.2163692,14.4079531 L41.2166327,14.4077143 Z"/>
      <path d="M27.7703878 2.54009388L27.7703878 8.52189796C27.7703878 9.71577551 26.8003224 10.6858408 25.5940286 10.6858408L13.6767429 10.6858408C10.8319714 10.6858408 8.5156898 8.36955918 8.5156898 5.52478776 8.5156898 2.68001633 10.8319714.376143686 13.6767429.376143686L25.5908449.376143686C26.7754102.373042163 27.7703878 1.35863265 27.7703878 2.54009388L27.7703878 2.54009388zM37.4606939 73.8086939C37.4606939 75.9041878 35.7507429 77.6235306 33.655249 77.6235306 31.5473388 77.6235306 29.8404122 75.9041878 29.8404122 73.8086939 29.8404122 73.3858622 29.5015261 73.0469761 29.0786945 73.0469761L8.54957204 73.050085C8.12674041 73.050085 7.78785429 73.3889711 7.78785429 73.8118027 7.78785429 75.9072966 6.07790327 77.6266395 3.97301755 77.6266395 1.87752367 77.6266395.167572653 75.9072966.167572653 73.8118027.167572653 69.1886313 3.92335224 65.4204335 8.54938898 65.4204335L29.0785114 65.4204335C33.7016829 65.4173265 37.4606939 69.1855272 37.4606939 73.8086191L37.4606939 73.8086939z"/>
    </g>
  </g>
</svg>
