<?xml version="1.0" encoding="UTF-8" standalone="no" ?>
<!DOCTYPE svg PUBLIC "-//W3C//DTD SVG 1.1//EN" "http://www.w3.org/Graphics/SVG/1.1/DTD/svg11.dtd">
<svg xmlns="http://www.w3.org/2000/svg" xmlns:xlink="http://www.w3.org/1999/xlink" version="1.1" width="109" height="108" viewBox="0 0 109 108" xml:space="preserve">
<desc>Created with Fabric.js 5.3.0</desc>
<defs>
</defs>
<g transform="matrix(1 0 0 1 54.5 54)" id="7nE7DM8JtNeZBC-hMzvbF"  >
<g style="" vector-effect="non-scaling-stroke"   >
		<g transform="matrix(1 0 0 1 -0.1542855 -0.1542855)" id="f9H7uhDQ5M0IogXCOwjk3"  >
<path style="stroke: none; stroke-width: 1; stroke-dasharray: none; stroke-linecap: butt; stroke-dashoffset: 0; stroke-linejoin: miter; stroke-miterlimit: 4; fill: rgb(0,73,126); fill-rule: nonzero; opacity: 1;" vector-effect="non-scaling-stroke"  transform=" translate(-53.8457145, -53.8457145)" d="M 53.8457143 0 C 83.5839331 0 107.691429 24.1074955 107.691429 53.8457143 C 107.691429 83.5839331 83.5839331 107.691429 53.8457143 107.691429 C 24.1074955 107.691429 0 83.5839331 0 53.8457143 C 0 24.1074955 24.1074955 0 53.8457143 0 M 53.8457143 1.53844898 C 82.7347092 1.53844898 106.15298 24.9536424 106.15298 53.8457143 C 106.15298 82.7377861 82.7347092 106.15298 53.8457143 106.15298 C 24.9567193 106.15298 1.53844898 82.7377861 1.53844898 53.8457143 C 1.53844898 24.9536424 24.9567193 1.53844898 53.8457143 1.53844898" stroke-linecap="round" />
</g>
		<g transform="matrix(1 0 0 1 5.73147605 -16.87663165)" id="b5hdLDfeamnCwUnOp9wyE"  >
<path style="stroke: none; stroke-width: 1; stroke-dasharray: none; stroke-linecap: butt; stroke-dashoffset: 0; stroke-linejoin: miter; stroke-miterlimit: 4; fill: rgb(255,255,255); fill-rule: nonzero; opacity: 1;" vector-effect="non-scaling-stroke"  transform=" translate(-35.23147605, -19.62336835)" d="M 32.2630204 10.6609796 C 32.3794107 10.6609796 32.495801 10.6609796 32.7285816 10.7773699 L 32.8449719 10.7773699 C 33.0777526 10.7773699 33.1941429 10.8937602 33.4269235 11.0101505 L 34.1252653 11.3593214 C 34.3580459 11.4757117 34.5908265 11.7084923 34.8236071 11.8248827 C 35.0563878 12.0576633 35.2891684 12.2904439 35.521949 12.4068342 C 35.7547296 12.6396148 35.8711199 12.8723954 35.9875102 13.105176 L 35.9875102 13.3379566 L 35.9875102 13.4543469 L 35.9875102 13.5707372 L 35.9875102 13.6871276 L 35.9875102 14.0362985 L 35.9875102 14.7346403 C 35.9875102 14.7346403 35.9875102 14.8510306 35.8711199 14.8510306 C 35.7547296 15.2002015 35.6383393 15.5493724 35.521949 16.0149337 L 35.521949 16.131324 L 35.521949 16.2477143 C 35.521949 16.3641046 35.4055587 16.3641046 35.4055587 16.4804949 C 35.1727781 16.9460561 35.0563878 17.2952643 34.9399974 17.5279704 L 34.1252281 19.1574347 L 34.9399974 18.2263122 L 35.2891684 17.8771413 L 35.521949 17.6443607 C 35.521949 18.1099219 35.6383393 18.4591301 35.7547296 18.6918362 C 35.8711199 19.0410071 35.8711199 19.3901781 35.8711199 19.6229587 L 35.8711199 19.8557393 L 35.8711199 20.0885199 L 35.8711199 20.2049102 L 35.8711199 20.4376908 C 35.8711199 20.6704714 35.7547296 20.903252 35.7547296 21.0196423 C 35.7547296 21.1360327 35.6383393 21.252423 35.6383393 21.3688133 L 35.521949 21.6015939 L 35.7547296 21.8343745 L 35.9875102 21.6015939 L 36.3366811 21.252423 L 36.685852 20.5540811 C 36.685852 20.4376908 36.8022423 20.3213005 36.8022423 20.0885199 L 36.8022423 19.8557393 L 36.8022423 19.6229587 C 36.8022423 19.2737878 36.8022423 18.8081893 36.685852 18.4590556 C 36.685852 18.226275 36.5694617 18.1098847 36.4530714 17.8771041 C 36.3366811 17.7607138 36.3366811 17.5279332 36.2202908 17.4115429 C 36.1039005 17.1787622 36.1039005 17.0623719 36.1039005 16.9459816 C 36.2202908 16.713201 36.3366811 16.4804204 36.5694617 16.1312122 C 36.685852 15.7820413 36.8022423 15.4328704 36.9186327 15.2000898 L 36.9186327 14.8509189 L 37.2678036 14.501748 L 37.3841939 14.501748 C 37.3841939 14.501748 37.5005842 14.501748 37.6169745 14.3853577 L 37.8497551 14.3853577 L 38.0825357 14.3853577 L 38.6644872 14.3853577 L 38.8972679 14.3853577 L 39.5956097 14.3853577 C 39.712 14.3853577 39.8283903 14.2689673 39.8283903 14.2689673 L 39.9447806 14.2689673 C 40.1775612 14.152577 40.2939515 14.0361867 40.4103418 13.9197964 C 40.6431224 13.6870158 40.8759031 13.3378449 40.9922934 13.105027 C 41.1086837 12.8722092 41.225074 12.6394658 41.3414643 12.5230755 L 41.6906352 11.8247337 L 41.4578546 11.5919531 L 41.3414643 11.7083434 L 40.8759031 12.1739046 L 40.4103418 12.6394658 L 39.8283903 13.2214173 C 39.712 13.3378077 39.5956097 13.3378077 39.4792194 13.454198 L 39.3628291 13.454198 L 39.2464388 13.454198 L 38.7808776 13.454198 L 38.5480969 13.454198 L 38.4317066 13.454198 L 37.9661454 13.454198 L 37.6169745 13.454198 C 37.5005842 13.454198 37.3841939 13.454198 37.2678036 13.5705883 C 37.1514133 13.5705883 37.035023 13.6869786 36.9186327 13.6869786 L 36.8022423 13.8033689 L 36.685852 13.8033689 L 36.685852 13.5705883 L 36.685852 13.3378077 L 36.685852 13.2214173 L 36.685852 13.105027 L 36.685852 12.9886367 C 36.5694617 12.6394658 36.3366811 12.2902949 36.1039005 11.9411612 C 35.8711199 11.7083806 35.521949 11.4756 35.2891311 11.2428194 C 35.0563133 11.0100388 34.7071796 10.8936485 34.4743617 10.7772582 C 34.1251908 10.6608679 33.8924102 10.5444776 33.6595923 10.4280872 C 33.4267745 10.3116969 33.1940311 10.3116969 32.9612505 10.3116969 L 32.379299 10.3116969 L 32.0301281 10.3116969 L 30.6334444 10.5444776 L 32.0301281 10.6608679 L 32.2629087 10.6608679 L 32.2630204 10.6609796 z M 51.5841837 24.5116122 C 51.700574 24.1624413 51.700574 23.6968429 51.700574 23.4641367 C 51.700574 23.2314306 51.700574 23.1149658 51.5841837 22.8821852 L 51.5841837 22.6494046 L 51.5841837 22.5330143 L 51.5841837 22.416624 L 51.5841837 22.3002337 C 51.4677934 21.9510628 51.2350128 21.6018918 51.0022321 21.2527582 C 50.7694515 21.0199776 50.4202806 20.7871969 50.1874628 20.5544163 C 49.9546821 20.438026 49.8382918 20.3216357 49.6055112 20.2052454 L 49.7219015 20.0888551 L 49.8382918 19.9724648 C 50.0710724 19.7396842 50.1874628 19.5069036 50.3038531 19.274123 C 50.4202434 18.924952 50.4202434 18.6921714 50.3038531 18.4593536 C 50.3038531 18.3429633 50.1874628 18.226573 50.1874628 18.1101827 C 50.1874628 17.9937923 50.1874628 17.9937923 50.0710724 17.877402 C 50.0710724 17.7610117 49.9546821 17.5282311 49.9546821 17.4118408 C 49.9546821 17.2954505 49.8382918 17.2954505 49.8382918 17.1790602 C 49.7219015 17.1790602 49.6055112 17.1790602 49.6055112 17.2954505 L 49.6055112 17.877402 L 49.6055112 18.226573 L 49.6055112 18.4593536 C 49.6055112 18.6921342 49.6055112 18.8085245 49.4891209 18.9249148 L 49.13995 19.2740857 L 49.0235597 19.390476 L 48.9071694 19.390476 L 48.7907791 19.390476 L 48.6743888 19.5068663 L 48.4416082 19.5068663 L 48.3252179 19.5068663 C 48.2088276 19.5068663 48.0924372 19.390476 47.9760469 19.390476 C 47.9760469 19.390476 47.8596566 19.390476 47.8596566 19.2740857 C 47.7432663 19.2740857 47.5104857 19.1576954 47.2777051 19.0413051 C 47.1613148 19.0413051 47.1613148 18.9249148 47.0449245 18.9249148 C 46.6957536 18.6921342 46.462973 18.5757439 46.113802 18.4593536 C 45.7646311 18.226573 45.2990327 18.1101827 44.8334714 17.9937923 C 44.6006908 17.9937923 44.3679102 17.877402 44.018702 17.9937923 C 43.9023117 17.9937923 43.7859214 17.9937923 43.6695311 18.1101827 C 43.2039699 18.226573 42.8547617 18.6921342 42.5056281 19.0413051 C 42.2728474 19.2740857 42.3892378 19.1576954 42.0400668 19.1576954 C 41.8072862 19.1576954 41.5745056 19.1576954 41.4581153 19.390476 C 41.341725 19.5068663 41.341725 19.7396469 41.341725 19.9724276 C 41.341725 20.5543791 41.5745056 21.1363306 41.5745056 20.90355 L 41.5745056 20.2052082 C 41.6908959 19.9724276 41.8072862 19.8560372 42.0400668 19.7396469 L 42.1564571 19.7396469 C 42.5056281 19.7396469 42.7384087 19.7396469 42.9712265 19.5068663 C 43.0876168 19.390476 43.2040071 19.2740857 43.3203974 19.2740857 C 43.5531781 19.0413051 43.7859587 18.9249148 44.1351668 18.9249148 C 44.2515571 18.9249148 44.4843378 18.9249148 44.6007281 19.0413051 C 44.7171184 19.0413051 44.949899 19.1576954 45.0662893 19.1576954 L 45.1826796 19.1576954 C 45.4154602 19.2740857 45.5318505 19.2740857 45.7646311 19.390476 C 45.8810214 19.5068663 46.113802 19.5068663 46.2301923 19.6232566 L 46.9285342 19.9724276 C 47.0449245 20.0888179 47.2777051 20.2052082 47.5104857 20.2052082 C 47.7432663 20.3215985 47.9760469 20.4379888 48.3252551 20.4379888 L 48.4416454 20.4379888 L 48.674426 20.4379888 C 48.7908163 20.4379888 48.9072066 20.5543791 48.9072066 20.5543791 C 49.1399872 20.6707694 49.3727679 20.90355 49.6055485 21.0199403 C 49.8383291 21.2527209 50.0711097 21.4855015 50.3038903 21.6018918 C 50.5366709 21.8346724 50.6530612 22.0674531 50.7694515 22.3002337 L 50.7694515 22.5330143 L 50.7694515 22.6494046 L 50.7694515 22.7657949 L 50.7694515 22.8821852 L 50.7694515 23.2313561 L 50.7694515 24.1624786 C 50.7694515 24.5116495 50.6530612 24.7444301 50.5366709 24.977248 C 50.4202806 25.2100658 50.3038903 25.4428092 50.3038903 25.6755898 C 50.0711097 26.141151 49.9547194 26.4903592 49.8383291 26.7230653 L 49.0235597 28.3525296 L 49.8383291 27.4214071 L 50.1875 27.0722362 C 50.4202806 26.8394556 50.6530612 26.4902847 51.0022694 26.0247607 C 51.1186597 25.7919801 51.23505 25.5591995 51.4678306 25.2099913 C 51.3514403 25.2099913 51.4678306 24.8608204 51.5842209 24.5116495 L 51.5841837 24.5116122 z M 29.0048367 25.0941224 C 29.121227 24.7449515 29.121227 24.2793531 29.121227 24.0466469 C 29.121227 23.8139408 29.121227 23.697476 29.0048367 23.4646954 L 29.0048367 23.2319148 L 29.0048367 23.1155245 L 29.0048367 22.9991342 L 29.0048367 22.8827439 C 28.8884464 22.533573 28.6556658 22.184402 28.4228852 21.8352684 C 28.1901046 21.6024878 27.8409337 21.3697071 27.6081158 21.1369265 C 27.3753352 21.0205362 27.2589449 20.9041459 27.0261643 20.7877556 L 27.1425546 20.6713653 L 27.2589449 20.554975 C 27.4917255 20.3221944 27.6081158 20.0894138 27.7245061 19.8566332 C 27.8408964 19.5074622 27.8408964 19.2746816 27.7245061 19.0418638 C 27.7245061 18.9254735 27.6081158 18.8090832 27.6081158 18.6926929 C 27.6081158 18.5763026 27.6081158 18.5763026 27.4917255 18.4599122 C 27.4917255 18.3435219 27.3753352 18.1107413 27.3753352 17.994351 C 27.3753352 17.8779607 27.2589449 17.8779607 27.2589449 17.7615704 C 27.1425546 17.7615704 27.0261643 17.7615704 27.0261643 17.8779607 L 27.0261643 18.4599122 L 27.0261643 18.8090832 L 27.0261643 19.0418638 C 27.0261643 19.2746444 27.0261643 19.3910347 26.909774 19.507425 L 26.5606031 19.8565959 L 26.4442128 19.9729862 L 26.3278224 19.9729862 L 26.2114321 19.9729862 L 26.0950418 20.0893765 L 25.8622612 20.0893765 L 25.7458709 20.0893765 C 25.6294806 20.0893765 25.5130903 19.9729862 25.3967 19.9729862 C 25.3967 19.9729862 25.2803097 19.9729862 25.2803097 19.8565959 C 25.1639194 19.8565959 24.9311388 19.7402056 24.6983582 19.6238153 C 24.5819679 19.6238153 24.5819679 19.507425 24.4655776 19.507425 C 24.1164066 19.2746444 23.883626 19.1582541 23.5344551 19.0418638 C 23.1852842 18.8090832 22.7196857 18.6926929 22.2541245 18.5763026 C 22.0213439 18.5763026 21.7885633 18.4599122 21.4393551 18.5763026 C 21.3229648 18.5763026 21.2065745 18.5763026 21.0901842 18.6926929 C 20.624623 18.8090832 20.2754148 19.2746444 19.9262811 19.6238153 C 19.6935005 19.8565959 19.8098908 19.7402056 19.4607199 19.7402056 C 19.2279393 19.7402056 18.9951587 19.7402056 18.8787684 19.9729862 C 18.7623781 20.0893765 18.7623781 20.3221571 18.7623781 20.5549378 C 18.7623781 21.1368893 18.9951587 21.7188408 18.9951587 21.4860602 L 18.9951587 20.7877184 C 19.111549 20.5549378 19.2279393 20.4385474 19.4607199 20.3221571 L 19.5771102 20.3221571 C 19.9262811 20.3221571 20.1590617 20.3221571 20.3918796 20.0893765 C 20.5082699 19.9729862 20.6246602 19.8565959 20.7410505 19.8565959 C 20.9738311 19.6238153 21.2066117 19.507425 21.5558199 19.507425 C 21.6722102 19.507425 21.9049908 19.507425 22.0213811 19.6238153 C 22.1377714 19.6238153 22.370552 19.7402056 22.4869423 19.7402056 L 22.6033327 19.7402056 C 22.8361133 19.8565959 22.9525036 19.8565959 23.1852842 19.9729862 C 23.3016745 20.0893765 23.5344551 20.0893765 23.6508454 20.2057668 L 24.3491872 20.5549378 C 24.4655776 20.6713281 24.6983582 20.7877184 24.9311388 20.7877184 C 25.1639194 20.9041087 25.3967 21.020499 25.7459082 21.020499 L 25.8622985 21.020499 L 26.0950791 21.020499 C 26.2114694 21.020499 26.3278597 21.1368893 26.3278597 21.1368893 C 26.5606403 21.2532796 26.7934209 21.4860602 27.0262015 21.6024505 C 27.2589821 21.8352311 27.4917628 22.0680117 27.7245434 22.184402 C 27.957324 22.4171827 28.0737143 22.6499633 28.1901046 22.8827439 L 28.1901046 23.1155245 L 28.1901046 23.2319148 L 28.1901046 23.3483051 L 28.1901046 23.4646954 L 28.1901046 23.8138663 L 28.1901046 24.7449888 C 28.1901046 25.0941597 28.0737143 25.3269403 27.957324 25.5597582 C 27.8409337 25.792576 27.7245434 26.0253194 27.7245434 26.2581 C 27.4917628 26.7236612 27.3753724 27.0728694 27.2589821 27.3055755 L 26.4442128 28.9350398 L 27.2589821 28.0039173 L 27.6081531 27.6547464 C 27.8409337 27.4219658 28.0737143 27.0727949 28.4229224 26.6072709 C 28.5393128 26.3744903 28.6557031 26.1417097 28.8884837 25.7925015 C 28.7720934 25.6761112 28.8884837 25.4433306 29.004874 25.0941597 L 29.0048367 25.0941224 z" stroke-linecap="round" />
</g>
		<g transform="matrix(1 0 0 1 17.13740945 -6.86717705)" id="8xCvppATB2nWlnqJhs5vY"  >
<path style="stroke: none; stroke-width: 1; stroke-dasharray: none; stroke-linecap: butt; stroke-dashoffset: 0; stroke-linejoin: miter; stroke-miterlimit: 4; fill: rgb(255,255,255); fill-rule: nonzero; opacity: 1;" vector-effect="non-scaling-stroke"  transform=" translate(-46.63740945, -29.63282295)" d="M 47.8596939 24.5116122 L 47.8596939 24.5116122 C 47.9760842 24.7443929 48.0924745 24.7443929 48.0924745 24.8607832 L 48.674426 25.6755526 L 48.3252551 24.7444301 C 48.3252551 24.6280398 48.2088648 24.5116495 48.2088648 24.5116495 L 48.2088648 24.3952592 L 48.2088648 24.2788689 C 48.2088648 24.1624786 48.0924745 24.0460883 48.0924745 23.929698 C 48.0924745 23.8133077 47.9760842 23.6969173 47.9760842 23.580527 C 47.9760842 23.4641367 47.8596939 23.4641367 47.7433036 23.3477464 C 47.7433036 23.3477464 47.7433036 23.2313561 47.6269133 23.2313561 L 47.3941327 22.8821852 L 47.161352 23.2313561 C 47.161352 23.3477464 47.0449617 23.4641367 47.0449617 23.580527 L 46.9285714 23.6969173 C 46.9285714 23.8133077 46.8121811 24.0460883 46.8121811 24.1624786 C 46.8121811 24.2788689 46.8121811 24.5116495 46.6957908 24.6280398 L 46.6957908 24.7444301 L 46.6957908 25.093601 L 46.5794005 26.1410765 L 46.9285714 25.093601 C 47.0449617 24.7444301 47.161352 24.5116495 47.2777423 24.1624786 L 47.3941327 23.8133077 C 47.3941327 23.929698 47.510523 23.929698 47.510523 24.0460883 C 47.6269133 24.2788689 47.7433036 24.3952592 47.8596939 24.5116495 L 47.8596939 24.5116122 z M 52.165949 32.309949 L 52.165949 32.1935587 L 52.165949 32.0771684 C 52.165949 31.9607781 52.2823393 31.8443878 52.2823393 31.7279974 C 52.2823393 31.6116071 52.3987296 31.4952168 52.3987296 31.3788265 L 52.3987296 31.0296556 L 52.3987296 30.9132653 L 52.5151199 30.4477041 L 52.165949 30.6804847 C 52.0495587 30.6804847 51.9331684 30.796875 51.8167781 30.796875 L 51.7003878 30.796875 C 51.5839974 30.9132653 51.4676071 30.9132653 51.2348265 31.0296556 C 51.1184362 31.1460459 51.0020459 31.2624362 50.8856556 31.2624362 L 50.7692653 31.3788265 L 50.5364847 31.6116071 L 49.7217153 32.309949 L 50.6528378 31.8443878 C 51.0020087 31.7279974 51.2347893 31.6116071 51.4676071 31.3788265 L 51.8167781 31.1460459 C 51.8167781 31.2624362 51.8167781 31.3788265 51.7003878 31.3788265 C 51.7003878 31.4952168 51.5839974 31.6116071 51.5839974 31.8443878 L 51.5839974 31.9607781 L 51.5839974 32.1935587 L 51.4676071 33.1246811 L 51.9331684 32.1935587 C 52.0495587 32.5427296 52.0495587 32.4263393 52.165949 32.309949 z M 45.6480918 29.6327857 L 45.6480918 29.5163954 C 45.6480918 29.2836148 45.6480918 29.0508342 45.5317015 28.8180536 L 45.5317015 28.7016633 C 45.5317015 28.4688827 45.4153112 28.3524923 45.2989209 28.1197117 C 45.1825306 27.6541505 44.94975 27.3049423 44.8333597 27.0722362 C 44.6005791 26.7230653 44.4841888 26.4902847 44.4841888 26.2574668 L 44.4841888 26.1410765 L 44.4841888 25.7919056 L 44.4841888 25.559125 L 44.4841888 24.9771735 L 44.4841888 24.6280026 L 44.6005791 24.2788316 L 44.1350179 24.046051 L 43.6694566 24.1624413 C 43.5530663 24.2788316 43.5530663 24.3952219 43.436676 24.6280026 C 43.3202857 24.8607832 43.3202857 25.0935638 43.3202857 25.3263444 L 43.3202857 25.7919056 L 43.3202857 26.0246862 L 43.3202857 26.3738571 C 43.436676 26.7230281 43.5530663 27.072199 43.7858469 27.5377602 C 43.9022372 27.7705408 44.0186276 27.8869311 44.1350179 28.0033214 C 44.2514082 28.1197117 44.3677985 28.236102 44.4841888 28.4688827 C 44.6005791 28.585273 44.7169694 28.8180536 44.7169694 28.9344439 C 44.7169694 29.0508342 44.8333597 29.2836148 44.8333597 29.4000051 C 44.8333597 29.749176 44.8333597 30.0983469 44.7169694 30.5639082 C 44.6005791 30.9130791 44.4841888 31.26225 44.2514082 31.4950306 L 44.1350179 31.6114209 L 44.0186276 31.7278112 L 43.9022372 31.8442015 C 43.9022372 31.8442015 43.7858469 31.9605918 43.6694566 31.9605918 C 43.5530663 31.9605918 43.5530663 32.0769821 43.436676 32.0769821 L 42.8547245 32.3097628 C 42.7383342 32.3097628 42.7383342 32.3097628 42.6219439 32.4261531 L 42.1563827 32.6589337 L 42.0399923 32.775324 L 41.8072117 33.0081046 L 41.6908214 33.1244949 C 41.5744311 33.3572755 41.4580408 33.4736658 41.3416505 33.7064464 C 41.1088699 34.0556173 41.1088699 34.4047883 40.9924796 34.6375689 C 40.8760893 34.8703495 40.8760893 35.1031301 40.8760893 35.3359107 L 40.759699 36.1506801 L 41.3416505 36.3834607 L 41.4580408 36.1506801 C 41.4580408 36.1506801 41.5744311 35.9178995 41.6908214 35.5687286 L 41.923602 34.986777 L 42.272773 34.2884352 C 42.3891633 34.1720449 42.3891633 34.0556546 42.5055536 34.0556546 L 42.6219439 33.9392643 L 42.7383342 33.9392643 L 43.0875051 33.822874 C 43.2038954 33.822874 43.2038954 33.7064837 43.3202857 33.7064837 L 43.436676 33.7064837 C 43.5530663 33.7064837 43.6694566 33.5900934 43.9022372 33.5900934 C 44.0186276 33.5900934 44.1350179 33.4737031 44.2514082 33.4737031 C 44.3677985 33.4737031 44.4841888 33.3573128 44.6005791 33.2409224 C 44.7169694 33.1245321 44.8333597 33.1245321 44.94975 33.0081418 L 45.0661403 32.8917515 L 45.1825306 32.7753612 C 45.5317015 32.4261903 45.6480918 31.9605918 45.6480918 31.3786776 C 45.7644821 30.331202 45.6480918 29.9819939 45.6480918 29.6327857 z" stroke-linecap="round" />
</g>
		<g transform="matrix(1 0 0 1 3.05438725 -15.30515765)" id="QElhtWEuUpTQ0iNf0Q4bd"  >
<path style="stroke: none; stroke-width: 1; stroke-dasharray: none; stroke-linecap: butt; stroke-dashoffset: 0; stroke-linejoin: miter; stroke-miterlimit: 4; fill: rgb(255,255,255); fill-rule: nonzero; opacity: 1;" vector-effect="non-scaling-stroke"  transform=" translate(-32.55438725, -21.19484235)" d="M 41.6911939 27.8874898 C 41.5748036 27.8874898 41.4584133 27.8874898 41.342023 28.0038801 C 41.2256327 28.0038801 41.1092423 28.0038801 40.8764617 28.1202704 L 40.5272908 28.1202704 L 40.2945102 28.1202704 L 40.1781199 28.1202704 L 40.0617296 28.1202704 L 39.9453393 28.1202704 C 39.5961684 28.0038801 39.3633878 27.8874898 39.1305699 27.6547092 C 39.0141796 27.5383189 38.8977893 27.4219286 38.8977893 27.189148 C 38.781399 26.9563673 38.781399 26.839977 38.781399 26.6071964 C 38.781399 26.3744158 38.6650087 26.2580255 38.6650087 26.0252449 L 38.6650087 25.5596837 L 38.6650087 24.3957806 L 38.6650087 23.3483051 L 38.1994474 24.2794276 C 38.1994474 24.2794276 37.9666668 24.7449888 37.8502765 25.4433306 C 37.7338862 25.9088918 37.7338862 26.2581 37.8502765 26.7236612 C 37.8502765 27.0728321 37.9666668 27.4220031 38.0830571 27.6547837 L 37.6174959 27.5383934 L 38.3158378 28.1203449 C 38.4322281 28.2367352 38.4322281 28.3531255 38.5486184 28.4695158 L 38.5486184 28.5859061 L 38.5486184 28.7022964 L 38.5486184 28.8186867 L 38.5486184 29.0514673 L 38.5486184 29.284248 L 38.5486184 29.4006383 C 38.5486184 29.5170286 38.4322281 29.7498092 38.4322281 29.9825898 C 38.4322281 30.0989801 38.3158378 30.3317607 38.3158378 30.448151 C 38.3158378 30.5645413 38.1994474 30.6809316 38.1994474 30.7973219 L 37.7338862 31.8447974 L 38.5486556 31.2628459 L 38.6650459 31.1464556 C 38.7814362 31.0300653 38.7814362 31.0300653 38.8978265 30.7972847 C 39.0142168 30.6808944 39.1306071 30.4481138 39.1306071 30.3317235 C 39.2469974 30.0989429 39.2469974 29.9825526 39.3633878 29.6333816 L 39.3633878 29.5169913 L 39.3633878 29.2842107 L 39.3633878 29.1678204 C 39.4797781 29.1678204 39.5961684 29.2842107 39.7125587 29.2842107 L 40.0617296 29.2842107 L 40.1781199 29.2842107 L 40.4109005 29.2842107 L 40.5272908 29.2842107 C 40.7600714 29.2842107 40.992852 29.1678204 41.1092423 29.1678204 C 41.342023 29.0514301 41.4584133 29.0514301 41.5748036 28.9350398 C 41.6911939 28.8186495 41.8075842 28.8186495 41.9239745 28.7022592 C 42.1567551 28.5858689 42.1567551 28.4694786 42.1567551 28.4694786 L 42.9715245 27.887527 L 41.924049 28.0039173 C 42.0404393 27.887527 41.924049 27.887527 41.6912684 27.887527 L 41.6911939 27.8874898 z M 32.6123776 29.4003776 L 32.2632066 28.7020357 C 32.030426 27.8872663 32.030426 27.0725714 32.1468163 26.141449 C 32.1468163 26.2578393 31.9140357 26.6070102 31.9140357 26.7234005 C 31.7976454 26.9561811 31.7976454 27.1889617 31.6812551 27.4217423 C 31.5648648 27.7709133 31.5648648 28.1200842 31.5648648 28.4692179 C 31.5648648 28.8183515 31.5648648 29.1675597 31.6812551 29.5166934 C 31.7976454 29.865827 32.030426 30.0986449 32.030426 30.4478158 C 32.1468163 31.0297673 31.7976454 31.7281464 31.4484745 32.3100607 C 31.7976454 32.0772801 32.1468163 31.8444995 32.3795969 31.4952913 C 32.3795969 31.378901 32.8451582 30.4478158 32.7287679 30.4478158 C 33.6598903 30.5642061 34.7073658 30.2150352 35.4057821 29.5166934 C 35.1730015 29.6330837 34.8238306 29.6330837 34.4746597 29.749474 C 33.7763179 29.8658643 32.961623 29.8658643 32.6124148 29.4003031 L 32.6123776 29.4003776 z M 23.3011531 24.5116122 L 22.9519821 23.8132704 C 22.7192015 22.998501 22.7192015 22.1838061 22.8355918 21.2526837 C 22.8355918 21.369074 22.6028112 21.7182449 22.6028112 21.8346352 C 22.4864209 22.0674158 22.4864209 22.3001964 22.3700306 22.532977 C 22.2536403 22.882148 22.2536403 23.2313189 22.2536403 23.5804526 C 22.2536403 23.9295862 22.2536403 24.2787944 22.3700306 24.6279281 C 22.4864209 24.9770617 22.7192015 25.2098796 22.7192015 25.5590505 C 22.8355918 26.141002 22.4864209 26.8393811 22.13725 27.4212954 C 22.4864209 27.1885148 22.8355918 26.9557342 23.0683724 26.606526 C 23.0683724 26.4901357 23.5339337 25.5590505 23.4175434 25.5590505 C 24.3486658 25.6754408 25.3961413 25.3262699 26.0945577 24.6279281 C 25.861777 24.7443184 25.5126061 24.7443184 25.1634352 24.8607087 C 24.4650934 24.977099 23.7667515 24.977099 23.3011903 24.5115378 L 23.3011531 24.5116122 z M 28.8878878 14.9679796 L 29.7026571 14.3860281 L 28.6551816 14.5024184 C 28.6551816 14.5024184 28.5387913 14.5024184 28.3060107 14.6188087 C 28.1896204 14.6188087 28.0732301 14.6188087 27.9568398 14.735199 C 27.8404495 14.735199 27.7240592 14.735199 27.4912786 14.8515893 L 27.1421077 14.8515893 L 26.909327 14.8515893 L 26.7929367 14.8515893 L 26.6765464 14.8515893 L 26.5601561 14.8515893 C 26.2109852 14.735199 25.9782046 14.6188087 25.7453867 14.3860281 C 25.6289964 14.2696378 25.5126061 14.0368571 25.5126061 13.9204668 C 25.3962158 13.6876862 25.3962158 13.5712959 25.3962158 13.3385153 C 25.3962158 13.1057347 25.2798255 12.9893444 25.2798255 12.7565638 L 25.2798255 12.2910026 L 25.2798255 11.1270995 L 25.2798255 10.079624 L 24.8142643 10.8943934 C 24.8142643 10.8943934 24.5814837 11.3599546 24.4650934 12.0582964 C 24.3487031 12.5238577 24.3487031 12.8730658 24.4650934 13.338627 C 24.4650934 13.687798 24.5814837 14.0369689 24.697874 14.2697495 L 24.2323128 14.1533592 L 24.9306546 14.7353107 C 25.0470449 14.851701 25.0470449 14.9680913 25.1634352 14.9680913 L 25.1634352 15.0844816 L 25.1634352 15.2008719 L 25.1634352 15.3172622 L 25.1634352 15.4336526 L 25.1634352 15.6664332 L 25.1634352 15.8992138 L 25.1634352 16.0156041 C 25.1634352 16.1319944 25.0470449 16.364775 25.0470449 16.4811653 C 25.0470449 16.5975556 24.9306546 16.8303362 24.9306546 16.9467265 C 24.9306546 17.0631168 24.8142643 17.1795071 24.8142643 17.2958974 L 24.3487031 18.343373 L 25.1634724 17.7614214 L 25.2798628 17.6450311 C 25.3962531 17.5286408 25.3962531 17.5286408 25.5126434 17.2958602 C 25.6290337 17.1794699 25.745424 16.9466893 25.745424 16.830299 C 25.8618143 16.5975184 25.8618143 16.4811281 25.9782046 16.1319571 L 25.9782046 16.0155668 L 25.9782046 15.7827862 L 25.9782046 15.6663959 C 26.0945949 15.6663959 26.2109852 15.7827862 26.3273755 15.7827862 L 26.6765464 15.7827862 L 26.7929367 15.7827862 L 27.0257173 15.7827862 L 27.1421077 15.7827862 C 27.3748883 15.7827862 27.6076689 15.6663959 27.7240592 15.6663959 C 27.9568398 15.5500056 28.0732301 15.5500056 28.1896204 15.4336153 C 28.3060107 15.317225 28.422401 15.317225 28.5387913 15.2008347 C 28.7715719 14.9680541 28.8879622 14.9680541 28.8879622 14.9680541 L 28.8878878 14.9679796 z M 35.9875102 21.951398 C 35.9875102 21.951398 35.8711199 21.951398 35.6383393 22.0677883 C 35.521949 22.0677883 35.4055587 22.0677883 35.2891684 22.1841786 C 35.1727781 22.1841786 35.0563878 22.1841786 34.8236071 22.3005689 L 34.4744362 22.3005689 L 34.2416556 22.3005689 L 34.1252653 22.3005689 L 34.008875 22.3005689 L 33.8924847 22.3005689 C 33.5433138 22.1841786 33.3105332 22.0677883 33.0777153 21.8350077 C 32.961325 21.7186173 32.8449347 21.4858367 32.8449347 21.3694464 C 32.7285444 21.1366658 32.7285444 21.0202755 32.7285444 20.7874949 C 32.7285444 20.5547143 32.6121541 20.438324 32.6121541 20.2055434 L 32.6121541 19.7399821 L 32.6121541 18.5760791 L 32.6121541 17.5286036 L 32.1465929 18.459726 C 32.1465929 18.459726 31.9138122 18.9252872 31.7974219 19.6236291 C 31.6810316 20.0891903 31.6810316 20.4383985 31.7974219 20.9039597 C 31.7974219 21.2531306 31.9138122 21.6023015 32.0302026 21.8350821 L 31.5646413 21.7186918 L 32.2629832 22.3006434 C 32.3793735 22.4170337 32.3793735 22.533424 32.4957638 22.6498143 L 32.4957638 22.7662046 L 32.4957638 22.8825949 L 32.4957638 22.9989852 L 32.4957638 23.2317658 L 32.4957638 23.4645464 L 32.4957638 23.5809367 C 32.4957638 23.697327 32.3793735 23.9301077 32.3793735 24.1628883 C 32.3793735 24.2792786 32.2629832 24.5120592 32.2629832 24.6284495 C 32.2629832 24.7448398 32.1465929 24.8612301 32.1465929 24.9776204 L 31.6810316 26.0250959 L 32.495801 25.4431444 L 32.6121913 25.3267541 C 32.7285816 25.2103638 32.7285816 25.2103638 32.8449719 24.9775832 C 32.9613622 24.8611929 33.0777526 24.6284122 33.0777526 24.5120219 C 33.1941429 24.2792413 33.1941429 24.162851 33.3105332 23.8136801 L 33.3105332 23.6972898 L 33.3105332 23.4645092 L 33.3105332 23.3481189 C 33.4269235 23.3481189 33.5433138 23.4645092 33.6597041 23.4645092 L 34.008875 23.4645092 L 34.1252653 23.4645092 L 34.3580459 23.4645092 L 34.4744362 23.4645092 C 34.7072168 23.4645092 34.9399974 23.3481189 35.0563878 23.3481189 C 35.2891684 23.2317286 35.4055587 23.2317286 35.521949 23.1153383 C 35.6383393 23.1153383 35.7547296 22.998948 35.8711199 22.8825577 C 36.1039005 22.7661673 36.1039005 22.649777 36.1039005 22.649777 L 36.9186699 22.0678255 L 35.9875102 21.951398 z" stroke-linecap="round" />
</g>
		<g transform="matrix(1 0 0 1 2.4579398977 0.000018601)" id="MCZYjw1gB2NsCtaGbKbFQ"  >
<path style="stroke: none; stroke-width: 1; stroke-dasharray: none; stroke-linecap: butt; stroke-dashoffset: 0; stroke-linejoin: miter; stroke-miterlimit: 4; fill: rgb(255,255,255); fill-rule: nonzero; opacity: 1;" vector-effect="non-scaling-stroke"  transform=" translate(-31.9579398977, -36.500018601)" d="M 56.2397959 10.4285714 C 53.3300755 7.40242347 49.6055857 4.84183673 45.2987347 2.97959184 C 41.2250367 1.35012755 36.8024286 0.419005102 32.6123776 0.419005102 C 27.0256429 0.419005102 21.7882653 1.81568878 17.5982143 4.60905612 C 12.826249 7.75163163 9.33431633 12.1742398 7.35586735 17.6447704 C 6.65752551 19.5070153 6.19196429 21.4856133 5.95918367 23.6970663 C 5.84279337 24.7445418 5.95918367 25.7920918 6.4247449 26.8396418 L 6.4247449 26.9560321 C 6.89030612 28.4690689 7.00669643 29.6330464 6.65752551 30.9133026 L 6.65752551 31.0296929 C 5.95918367 32.8919378 4.79528061 34.521402 3.28224388 36.2672194 C 2.35112143 37.3146949 1.53635204 38.3622449 0.954437755 39.4097949 C 0.372523469 40.4573449 0.488876531 41.3883929 0.605266837 41.9703816 C 0.954437755 43.1342847 1.88559745 44.1818347 3.04942602 44.6473959 L 3.16581633 44.6473959 L 5.26084184 45.3457378 L 4.91167092 47.2079827 C 4.79528061 47.9063245 4.79528061 48.4883133 4.79528061 49.0702276 L 4.91167092 49.5357888 C 5.14445153 50.9324724 5.37723214 52.3291561 5.95914643 53.8421929 L 5.95914643 53.9585832 C 6.30831735 55.0060587 6.30831735 55.4716199 6.19192704 56.4027423 L 6.19192704 56.5191327 C 6.07553673 56.8683036 5.95914643 57.333902 6.07553673 57.9158163 L 6.07553673 58.1485969 C 6.07553673 59.5452806 6.65748827 60.9419643 7.82142857 62.2222949 C 8.98533163 63.386198 10.3820153 64.0845398 12.1278327 64.3173204 C 13.4081633 64.550101 14.6884194 64.6664913 15.9686755 64.7828816 L 16.2014561 64.7828816 C 16.550627 64.7828816 16.899798 64.7828816 17.2489316 64.8992719 L 17.8308832 64.8992719 L 18.0636638 64.8992719 C 18.4128347 64.8992719 18.6456153 65.0156622 18.9947862 65.0156622 C 19.3439571 65.0156622 19.6931281 65.1320526 20.0422617 65.1320526 L 21.7881536 65.1320526 L 22.3701051 68.1582005 C 22.4864954 68.6237617 22.4864954 69.089323 22.6028857 69.6712372 C 22.6028857 69.9040179 22.719276 70.1367985 22.719276 70.3695791 C 22.9520566 71.6499097 24.1159597 72.5810321 25.3962903 72.5810321 L 25.6290709 72.5810321 L 25.9782418 72.5810321 L 50.6529867 67.8090668 C 51.9333173 67.6926765 52.8644398 66.6451638 52.8644398 65.3649077 C 52.9808301 61.8731985 53.5627816 52.9109587 56.7052827 46.3931015 C 57.2872342 45.1127709 57.9856133 44.0652954 58.6838806 42.7849648 L 58.8002709 42.5521842 C 60.7788689 38.9440474 62.7575413 35.2195577 63.2231026 31.0293577 C 64.154225 23.3479699 61.4772107 15.6658372 56.2396842 10.4284597 L 56.2397959 10.4285714 Z M 56.0070153 25.0941224 C 56.0070153 26.2580255 55.890625 27.4219286 55.890625 28.5858316 C 55.890625 30.2152959 55.4250638 31.9611133 54.2611607 33.1250908 C 53.7955995 33.590652 53.2136852 34.0562133 52.6316964 34.2889939 C 52.0497077 34.5217745 51.2350128 34.6381648 50.8858046 35.2201163 C 50.3038531 36.0348857 50.5366337 37.0823612 49.9546821 37.8971306 C 48.3252179 39.9921561 45.0662893 39.1774612 42.8549107 38.8282531 C 40.1778964 38.3626918 37.8500903 36.3840939 37.3845291 33.5907265 L 37.3845291 32.8923847 C 37.1517485 32.8923847 36.8025776 32.8923847 36.5697597 33.008775 L 36.5697597 33.3579459 L 36.5697597 33.7071168 C 36.8025403 34.9874474 37.5008821 36.3841311 38.5483577 37.4316066 C 39.2466995 38.246376 40.0613944 38.8282903 40.9925168 39.1774985 C 41.1089071 40.5741821 41.3416878 41.8545128 41.8072862 43.1347689 C 41.9236765 43.6003301 42.5056281 44.1822444 42.2728474 44.7642332 C 41.9236765 45.6953556 40.2942495 45.3461847 39.7122607 44.8806235 C 39.2466995 44.4150622 39.0139189 43.833148 38.8974913 43.2511592 C 37.8500158 40.4577918 36.3369046 37.5480714 34.0090985 35.5697714 C 33.8927082 35.4533811 33.6599276 35.3369908 33.5435372 35.2206005 C 33.1943663 34.8714296 33.1943663 34.5222587 33.1943663 34.0566974 C 33.1943663 33.9403071 33.1943663 33.7075265 33.3107566 33.5911362 C 30.1681811 34.0566974 26.9092526 33.3583556 24.2319403 31.7288913 C 23.5335985 31.2633301 23.3008179 30.3322077 22.9516097 29.6338658 C 22.3696582 28.5863903 21.438573 28.4699628 20.2745954 28.2371821 C 18.9942648 28.0044015 17.4812281 27.6552306 16.317325 26.1421566 C 15.8517638 25.4438148 15.3862026 24.5126923 15.1534219 23.3487893 C 14.9206413 22.4176668 14.9206413 21.3701913 14.804251 20.5554219 C 14.6878607 19.5079464 14.804251 18.576824 15.0370316 17.6457015 C 15.2698122 16.7145791 15.7353735 15.7834566 16.3173622 15.0851148 C 17.0157041 14.1539923 17.830399 13.339223 18.7615214 12.5245281 C 20.041852 11.4770526 21.7876694 11.0114913 22.8352194 9.73116071 C 23.5335612 8.91639133 24.6974643 8.4508301 25.7449398 8.33447704 C 27.2579765 8.10169643 28.8875153 7.75252551 30.400552 7.51970765 C 32.37915 7.28692704 34.3578224 7.17053673 36.2200673 7.51970765 C 37.2675429 7.63609796 38.4315204 8.10165918 39.595349 8.4508301 C 40.8756796 8.80000102 42.1559357 8.68361071 43.4361918 9.03278163 C 45.2984367 9.49834286 47.0443286 10.4294653 48.4410122 11.7097959 C 49.3721347 12.6409184 49.954049 13.6883939 50.7688184 14.7359439 C 51.4671602 15.7834194 52.6310633 16.4818357 52.8638439 17.7620918 C 52.9802342 18.4604337 53.4457954 19.0424224 53.9113194 19.6243367 C 55.3080031 21.0210204 56.0063449 23.1160459 56.0063449 25.0947184 L 56.0070153 25.0941224 Z" stroke-linecap="round" />
</g>
</g>
</g>
<g transform="matrix(6.2884679999 0 0 6.1983392384 59.7323299489 42.527008439)" id="TIJenOt82XTpquQeEghAz"  >
<path style="stroke: rgb(236,189,202); stroke-width: 0; stroke-dasharray: none; stroke-linecap: butt; stroke-dashoffset: 0; stroke-linejoin: miter; stroke-miterlimit: 4; fill: rgb(255,255,255); fill-rule: nonzero; opacity: 1;" vector-effect="non-scaling-stroke"  transform=" translate(0, 0)" d="M 0 -3.52522 C 1.94592 -3.52522 3.52522 -1.94592 3.52522 0 C 3.52522 1.94592 1.94592 3.52522 0 3.52522 C -1.94592 3.52522 -3.52522 1.94592 -3.52522 0 C -3.52522 -1.94592 -1.94592 -3.52522 0 -3.52522 z" stroke-linecap="round" />
</g>
</svg>