<svg xmlns="http://www.w3.org/2000/svg" width="109" height="108" viewBox="0 0 109 108">
  <g fill="none" transform="translate(.75)">
    <path fill="#00497E" d="M53.8457143,0 C83.5839331,0 107.691429,24.1074955 107.691429,53.8457143 C107.691429,83.5839331 83.5839331,107.691429 53.8457143,107.691429 C24.1074955,107.691429 0,83.5839331 0,53.8457143 C0,24.1074955 24.1074955,0 53.8457143,0 M53.8457143,1.53844898 C82.7347092,1.53844898 106.15298,24.9536424 106.15298,53.8457143 C106.15298,82.7377861 82.7347092,106.15298 53.8457143,106.15298 C24.9567193,106.15298 1.53844898,82.7377861 1.53844898,53.8457143 C1.53844898,24.9536424 24.9567193,1.53844898 53.8457143,1.53844898"/>
    <g fill="#FFF" transform="translate(22 14)">
      <path d="M23.1548235,12.8931765 L20.5187765,15.0586353 C19.8606871,15.7167247 19.2944941,16.5660235 18.7320471,17.4115765 C17.6033882,19.952 16.2834824,24.5660235 19.7688471,27.2939294 C22.4048941,27.4814306 24.8496941,28.8013176 27.1107765,31.2461176 L29.1806118,25.1284706 C29.1806118,23.6210824 29.3681129,21.3637647 30.7798588,20.7975529 C31.2504471,20.6100518 32.096,20.6100518 33.0371765,21.5512282 C33.6952659,21.9262306 36.8018824,21.4556424 40.3791059,20.5144282 C41.1327812,14.6798871 36.8018824,11.7607341 35.3901176,10.1614871 C33.9783529,8.46661647 35.76512,3.94821647 34.7320282,2.53645176 C33.6952282,1.12468706 31.3422871,1.78277647 31.3422871,1.78277647 L31.3422871,7.24235294 L30.2136282,1.40781176 C28.1437929,-0.0995764706 25.8827106,2.25340235 25.8827106,2.25340235 C27.7650635,9.21660235 27.0113694,10.9114729 27.0113694,10.9114729 C27.0113694,10.9188254 23.5297694,6.30488471 22.5885929,5.36370824 C21.5517929,4.42253176 19.1069929,5.36370824 19.0113694,7.34168471 C18.9157835,9.50714353 23.15104,12.89312 23.15104,12.89312 L23.1548235,12.8931765 Z M4.61082353,31.2461176 C4.61082353,31.2461176 6.11821176,29.7387294 7.43435294,29.8343529 C7.62185412,29.8343529 7.80935529,29.8343529 7.80935529,29.7387671 C7.80935529,29.7387671 9.69170824,30.3049412 7.80935529,31.4336376 C7.80935529,31.4336376 3.85716706,31.7167247 3.66968471,33.2203671 C3.48218353,34.7277553 3.10351059,36.7975906 4.89396706,37.6431435 C4.89396706,37.6431435 6.02262588,37.0769694 7.15128471,37.1725553 C7.24687059,37.1725553 7.90496,37.0769694 7.90496,37.0769694 C10.1622776,30.9593224 9.59983059,26.34944 8.94176,23.9004988 C8.56675765,23.9004988 8.37558588,23.9960847 8.37558588,23.9960847 C8.37558588,23.9960847 3.57408,24.2791718 3.38659765,25.7828141 C3.10351059,27.2902024 2.54100706,30.3930729 4.61088,31.2423906 L4.61082353,31.2461176 Z"/>
      <path d="M11.3901176,30.6842353 C12.8018824,29.4599529 14.8717176,28.1438118 17.2246588,27.5776 C14.1180235,23.7172706 16.0003765,18.0698353 17.7908329,15.0590118 L17.4158306,10.5406118 C13.0849129,5.64724706 8.84961882,10.1656094 8.84961882,10.1656094 C9.69520941,13.4597271 10.16576,17.8825035 10.4488659,22.4009035 C11.01504,23.9082918 11.7650071,26.7318212 11.3900424,30.6840094 L11.3901176,30.6842353 Z M56.9411765,48.3755294 C59.3897412,47.0593882 61.7426824,45.8351059 61.7426824,45.6476235 C61.8382682,45.0814494 61.1765082,41.0373647 58.2610824,41.5079529 C57.3199059,41.6954541 55.9081412,42.4491294 54.4007529,43.5777882 C55.0588424,44.6145882 55.9081412,46.1182118 56.9411765,48.3792941 L56.9411765,48.3755294 Z"/>
      <path d="M59.1981176,61.0804706 C58.3525271,58.1613176 57.5988706,55.8083765 56.9408,53.7385412 L53.5510588,45.9260235 C52.2349176,43.6687059 51.4812235,43.1024941 51.4812235,43.1024941 C51.4812235,43.1024941 47.8121412,39.5252706 45.6466824,38.1135059 C41.6944941,36.5142588 37.1760941,35.0068706 36.2349176,35.1943529 C35.8599153,35.47744 35.2937412,35.47744 35.0106353,35.0987671 C34.6356329,34.7237647 34.6356329,34.1575906 35.0106353,33.7826259 C35.5768094,33.2164518 36.6098824,32.8414494 41.8819765,34.6282165 C42.3525647,34.8157176 42.9187765,35.0032188 43.3893647,35.1943906 C43.2937788,34.8193882 43.2018635,34.4407153 43.0143624,33.9701082 C42.63936,27.8524612 47.5327624,28.4186729 47.5327624,28.4186729 C52.3342682,25.1245553 47.15776,21.9260612 47.15776,21.9260612 C45.3710306,21.9260612 43.8636424,21.9260612 42.4518776,22.1135624 C41.5107012,22.3966494 40.2864188,22.7716518 38.9702776,23.0547388 C33.7938071,24.2790212 32.3820424,23.7128282 31.8158306,23.0547388 L31.6283294,22.8672376 C31.4408282,23.3378259 31.2533271,25.5951435 31.2533271,25.7863906 L28.61728,33.5989082 C28.4297788,34.8231906 27.0180329,44.7057318 20.1466918,46.4007906 C15.3451859,47.5294494 12.5216565,49.7905318 11.7717271,53.2721318 C10.3599624,59.2941553 15.5364329,67.0151906 16.5732329,68.1436612 C22.4077741,72.2833318 30.9741741,77.1804612 41.0438212,78.8711906 C41.0438212,78.8711906 48.4776094,79.9998494 50.8301741,79.9079906 L53.1831153,79.6249035 C60.9956329,78.1175153 60.5250447,71.52928 59.7713506,64.7533741 C59.5838494,64.3783718 59.3007624,62.0254682 59.2051765,61.0842918 L59.1981176,61.0804706 Z"/>
      <path d="M8.94117647,61.7430588 C9.50735059,62.3092329 10.5404235,63.2504471 11.9521882,64.4709647 C10.3529412,61.1768471 8.94117647,56.8459294 9.69487059,52.9895529 C10.5404612,48.6586353 13.9301647,45.7432471 19.5772235,44.4233412 C24.8493176,43.1990588 26.2610824,35.3865412 26.5404235,33.5998118 C24.3749647,30.7762824 21.9301647,29.3645176 19.3859765,29.3645176 C14.6800941,29.2689318 10.9153882,33.8829176 10.9153882,33.9747765 C10.5403859,35.4821647 10.0697976,37.0814118 9.408,38.7762824 L9.22049882,41.1292235 C6.96318118,40.8461365 4.32713412,42.2578824 3.19847529,42.4453647 C1.22049882,42.7284518 -0.470607059,47.1512471 2.16167529,49.5998118 C2.16167529,49.5998118 -0.00378352941,53.8351059 3.85654588,54.9637647 C4.79772235,55.2468518 5.64327529,55.2468518 6.49259294,55.0593506 C6.49259294,55.71744 6.58817882,56.2836329 6.68009412,56.84608 C6.77568,57.9747388 8.46682353,61.0813741 8.93741176,61.7394447 L8.94117647,61.7430588 Z M62.4922353,49.0371765 C61.6466447,48.1915859 58.8231529,49.2246776 57.5032471,49.7908518 C58.0694212,51.29824 59.4812235,54.4967341 59.4812235,54.3092518 L62.2091294,53.9342494 C62.2091294,53.9342494 64.2789647,50.6401318 62.4922165,49.0408847 L62.4922353,49.0371765 Z M10.2569412,65.6 L9.59885176,76.6108235 C9.59885176,76.6108235 15.4333929,81.6916706 20.0477929,77.4564141 C21.0845929,76.5152376 21.7426635,75.2909553 22.0257694,73.9748141 C16.8492988,70.9638024 12.8014871,67.8571671 10.2610635,65.5998494 L10.2569412,65.6 Z"/>
    </g>
  </g>
</svg>
