<svg xmlns="http://www.w3.org/2000/svg" width="108" height="108" viewBox="0 0 108 108">
  <g fill="none">
    <path fill="#00497E" d="M53.8457143,0 C83.5839331,0 107.691429,24.1074955 107.691429,53.8457143 C107.691429,83.5839331 83.5839331,107.691429 53.8457143,107.691429 C24.1074955,107.691429 0,83.5839331 0,53.8457143 C0,24.1074955 24.1074955,0 53.8457143,0 M53.8457143,1.53844898 C82.7347092,1.53844898 106.15298,24.9536424 106.15298,53.8457143 C106.15298,82.7377861 82.7347092,106.15298 53.8457143,106.15298 C24.9567193,106.15298 1.53844898,82.7377861 1.53844898,53.8457143 C1.53844898,24.9536424 24.9567193,1.53844898 53.8457143,1.53844898"/>
    <g fill="#FFF" transform="translate(19 19)">
      <path d="M1.26329,36.5477 L9.13829,39.18908 L5.62191,46.98778 L5.5890975,47.058872 C5.3922225,47.608484 5.4332355,48.212752 5.6984725,48.729562 C5.9664395,49.249095 6.4340325,49.634662 6.9945925,49.793212 L8.3617625,50.186962 C9.4364025,50.474074 10.5739025,50.050245 11.2000525,49.131502 L14.7328825,43.979922 C15.1266325,43.739297 15.5942325,43.657264 16.0453825,43.750238 C16.3352245,43.886955 16.5649155,44.384613 16.6688165,45.117408 C16.6250665,45.833788 16.0016325,50.826748 8.1701165,53.047008 C7.5958995,53.265758 7.0462665,53.544666 6.5294565,53.872798 C5.6134365,54.419673 4.9845565,55.338458 4.8012965,56.388458 C4.6618425,57.438458 5.0063755,58.496648 5.7364265,59.265038 C6.6606365,60.358788 8.1372165,60.189248 8.8590565,59.937696 L12.5778065,58.658026 L11.3746465,65.882026 C11.2406595,66.970316 11.7465215,68.036696 12.6762265,68.616366 L14.5301065,69.710116 C14.8308895,69.89332 15.1726855,69.991754 15.5254365,69.994491 C15.7851995,69.994491 16.0422325,69.9343344 16.2746465,69.819491 C16.8242585,69.529649 17.1879365,68.980051 17.2371465,68.359361 C17.7840215,63.858571 18.3308965,60.960361 18.6918165,59.718561 L20.8793165,60.730271 C21.9566865,61.238863 23.2445465,60.825975 23.8269465,59.784151 L25.1558265,57.421651 C25.4566095,56.899388 25.5085635,56.270501 25.2952805,55.707211 C25.0847345,55.141198 24.6308265,54.703691 24.0620905,54.506851 L21.7761705,53.719351 C22.0113285,51.739681 22.9628805,46.566051 26.6433405,43.635151 L26.7034971,43.591401 C26.7034971,43.6515569 26.7034971,43.706243 26.741778,43.760934 L26.741778,66.729334 C26.7472471,68.348084 27.931218,69.717984 29.530858,69.961374 C29.662108,69.961374 30.471518,69.9941872 31.171518,69.9941872 L31.171518,59.0622872 C31.171518,58.4579912 31.660972,57.9685372 32.265268,57.9685372 C32.869564,57.9685372 33.359018,58.4579912 33.359018,59.0622872 L33.359018,69.9997872 C35.546518,69.9997872 40.162178,69.9997872 40.342638,69.9669747 C41.958658,69.7345537 43.159018,68.3509547 43.159018,66.7185547 L43.159018,32.5277547 C46.757438,35.6668347 47.884018,40.7961547 48.190268,42.7925547 L45.904348,43.5800547 C45.341065,43.7823967 44.898098,44.2226337 44.692998,44.7832147 C44.487919,45.3437607 44.54261,45.9671947 44.843386,46.4840047 L46.155886,48.8519647 C46.73557,49.8883147 48.015226,50.3039047 49.092596,49.8035447 L51.280096,48.7863747 C51.662912,50.0277547 52.209766,52.9262447 52.734766,57.4271747 C52.7648436,58.0588127 53.13672,58.6275347 53.705456,58.9064847 C54.271469,59.1881227 54.946836,59.1389057 55.469106,58.7779717 L57.322986,57.6842217 C58.252656,57.1045377 58.758546,56.0381017 58.624566,54.9498817 L57.421406,47.7202817 L61.107326,48.9944917 C61.829166,49.2460507 63.294826,49.3882417 64.229956,48.3218337 C64.960056,47.5534437 65.304596,46.4952537 65.165086,45.4452537 C64.984619,44.3952537 64.352946,43.4737737 63.436926,42.9295937 C62.917393,42.6014687 62.367816,42.3280277 61.796266,42.1092637 C53.970266,39.8834737 53.368966,34.8684637 53.324866,34.2069637 C53.428774,33.4741337 53.658458,32.9765037 53.9483,32.8397937 C54.399471,32.7440897 54.86978,32.826122 55.2608,33.0694847 L58.77172,38.1773147 C59.389687,39.1179747 60.54356,39.5609347 61.63185,39.2710647 L62.99902,38.8773147 C63.559566,38.7187227 64.02718,38.3331767 64.29514,37.8136647 C64.560377,37.2968687 64.60139,36.6925447 64.404515,36.1429747 L64.3717032,36.0718827 L60.8553232,28.2731827 L68.7303232,25.6318027 C69.3428232,25.4732107 69.8158832,24.9864867 69.9553232,24.3685127 C70.0947632,23.7505387 69.8760272,23.1079527 69.3920402,22.7005527 L67.5873702,20.9779227 C66.7916802,20.2588127 65.6760202,20.0099627 64.6506602,20.3216727 L60.1006602,21.8474627 C59.9830812,21.8419936 59.8655022,21.8146495 59.7561272,21.7708967 C59.6522192,21.6724627 59.5647192,21.5576137 59.4990942,21.4318377 L58.0115942,14.7654577 C57.8858112,14.1912407 57.5248772,13.6936177 57.0162642,13.3982877 C56.4994682,13.1139127 55.8869542,13.0537547 55.3263942,13.2342217 L53.2045542,13.9232877 C52.0615942,14.2951627 51.4108042,15.4982877 51.7225142,16.6576277 L54.1396842,25.7905277 C52.2858042,27.7647377 48.8733042,26.6491477 48.4521842,26.5014477 C48.2006182,26.3701977 43.9459342,24.2756577 43.4537642,23.8764477 C43.2951722,23.6385597 43.1940012,23.3678557 43.1584482,23.0834877 L43.1584482,8.3890877 C43.0928232,11.2793177 41.5123282,13.9206977 38.9967382,15.3453377 C38.8299422,15.4383047 38.6412712,15.4875217 38.4498632,15.4875217 C37.9522052,15.4902559 37.5147332,15.1566597 37.3862132,14.6753817 C37.2576932,14.1941037 37.4709762,13.6882417 37.9030092,13.4421917 C40.2655092,12.1023217 41.4358392,9.3460717 40.7604092,6.7156117 C40.0877512,4.0878817 37.7361992,2.2340017 35.0209692,2.195107 C32.3057392,2.1574301 29.9022192,3.9402517 29.1530092,6.5488717 C28.4037992,9.1602217 29.4948052,11.9465017 31.8162992,13.3547617 C32.0760622,13.4996827 32.2647332,13.7430447 32.3385622,14.0301497 C32.4151282,14.3172617 32.3713747,14.6207747 32.2182462,14.8750497 C32.0651177,15.1293247 31.8135622,15.3098127 31.5264502,15.3754377 C31.2366082,15.4410627 30.9330882,15.3863752 30.6842802,15.2250497 C28.2233602,13.7430097 26.7221402,11.0769897 26.7358602,8.2033497 L26.7358602,31.9214497 C26.7358602,34.8034897 24.4663202,35.9519097 21.8140202,37.2917797 L21.5187112,37.4394377 C21.1085532,37.5761547 17.8600912,38.6097677 16.0116712,36.8925627 C15.943312,36.6874837 15.9214342,36.4714707 15.9515146,36.2581877 L18.2483546,27.5515877 C18.5628086,26.3894477 17.9120256,25.1863577 16.7663146,24.8172477 L14.6444746,24.1281817 C14.0839286,23.9477147 13.4714146,24.0078657 12.9546046,24.2922477 C12.4432756,24.6012347 12.0905246,25.1153077 11.9811846,25.7031677 L10.5046046,32.3531677 C10.4444487,32.4625427 10.3760916,32.5664507 10.2967956,32.6648847 C10.1737496,32.7223071 10.0397626,32.7578517 9.9030456,32.7687927 L5.3421256,31.2375427 C4.3167656,30.9258257 3.2011056,31.1746519 2.4054156,31.8937927 L0.6062056,33.6164227 C0.1495676,34.0293107 -0.0582484,34.6527727 0.0593306,35.2570827 C0.2015146,35.8723197 0.6581596,36.3644827 1.2624906,36.5477427 L1.26329,36.5477 Z M36.64059,47.0316 C36.64059,46.427304 37.130044,45.93785 37.73434,45.93785 C38.338636,45.93785 38.82809,46.427304 38.82809,47.0316 L38.82809,64.5316 C38.82809,65.135896 38.338636,65.62535 37.73434,65.62535 C37.130044,65.62535 36.64059,65.135896 36.64059,64.5316 L36.64059,47.0316 Z M31.17184,33.9066 C31.17184,33.302304 31.661294,32.81285 32.26559,32.81285 C32.869886,32.81285 33.35934,33.302304 33.35934,33.9066 L33.35934,51.4066 C33.35934,52.010896 32.869886,52.50035 32.26559,52.50035 C31.661294,52.50035 31.17184,52.010896 31.17184,51.4066 L31.17184,33.9066 Z"/>
      <path d="M12.5783 19.6875C15.06932 19.7503908 17.31968 18.20546 18.15646 15.85934 19.35962 12.38671 17.669743 9.5375 16.18225 7.02744 15.599829 6.09231 15.09123 5.11336 14.65646 4.10165 14.314664 3.26221 14.038493 2.40086 13.82521 1.5204 13.732243 1.143058 13.464276.00007 12.41975.00007 11.37521.00007 11.10725 1.12665 11.01429 1.49849 10.727178 2.63053 10.360777 3.74066 9.92054 4.82349 9.554132 5.68484 9.14123 6.52428 8.67916 7.33915 7.55258 9.42823 6.38232 11.5829 6.58462 14.25165 6.852587 17.81731 9.84396 19.68757 12.57837 19.68757L12.5783 19.6875zM10.60409 8.3839C11.101748 7.49798 11.55294 6.58469 11.94942 5.64956 12.118953 5.223001 12.277545 4.80739 12.425203 4.39173L12.622078 4.905789C13.100591 6.043289 13.669348 7.142499 14.328328 8.187039 15.695498 10.494869 16.991618 12.671379 16.116618 15.181579 15.567006 16.641709 14.136948 17.579639 12.578328 17.500329 10.795498 17.500329 8.914248 16.444869 8.750168 14.087829 8.613451 12.031579 9.581418 10.270659 10.604048 8.383949L10.60409 8.3839zM66.4783 57.0227C66.177517 56.358246 65.931425 55.66645 65.74547 54.96099 65.510312 54.05316 65.056404 53.59382 64.38922 53.59382 63.722036 53.59382 63.29547 54.047728 63.02751 54.94461 62.576339 56.59073 61.88728 58.163 60.97672 59.60948 59.99784 61.25014 58.8931 63.13132 59.07909 65.38448 59.330649 68.40323 62.02126 69.98369 64.54784 69.98369 66.88297 69.98369 68.86817 68.72586 69.60646 66.77356 70.72758 63.82593 69.190835 61.45244 67.82909 59.36336 67.315024 58.62234 66.86386 57.83757 66.4783 57.0227L66.4783 57.0227zM67.57205 66.0135C67.068925 67.34238 65.67988 67.81271 64.54784 67.81271 63.0658 67.81271 61.40876 67.00337 61.26659 65.22054 61.13534 63.66192 61.97205 62.24008 62.86343 60.74166 63.309134 60.01702 63.71379 59.26508 64.07205 58.49403 64.186892 58.23153 64.296267 57.974497 64.400175 57.71745 64.400175 57.7721375 64.4493934 57.826825 64.471267 57.886983 64.908767 58.822113 65.422847 59.721753 66.007977 60.572113 67.232977 62.464283 68.293897 64.104943 67.572057 66.013493L67.57205 66.0135z"/>
    </g>
  </g>
</svg>
