<svg xmlns="http://www.w3.org/2000/svg" width="109" height="108" viewBox="0 0 109 108">
  <g fill="none" transform="translate(.5)">
    <path fill="#00497E" d="M53.8457143,0 C83.5839331,0 107.691429,24.1074955 107.691429,53.8457143 C107.691429,83.5839331 83.5839331,107.691429 53.8457143,107.691429 C24.1074955,107.691429 0,83.5839331 0,53.8457143 C0,24.1074955 24.1074955,0 53.8457143,0 M53.8457143,1.53844898 C82.7347092,1.53844898 106.15298,24.9536424 106.15298,53.8457143 C106.15298,82.7377861 82.7347092,106.15298 53.8457143,106.15298 C24.9567193,106.15298 1.53844898,82.7377861 1.53844898,53.8457143 C1.53844898,24.9536424 24.9567193,1.53844898 53.8457143,1.53844898"/>
    <g fill="#FFF" transform="translate(30.2 21)">
      <path d="M23.8,34.24565 C27.14356,34.24565 29.852935,31.536275 29.852935,28.192715 C29.852935,24.849155 23.8,15.057665 23.8,15.057665 C23.8,15.057665 17.747065,24.849665 17.747065,28.192715 C17.747065,31.536275 20.45644,34.24565 23.8,34.24565 Z"/>
      <path d="M41.4375,0.6375 L6.1625,0.6375 C2.99489,0.6375 0.425,3.20739 0.425,6.375 L0.425,52.275 C0.425,55.44261 2.99489,58.0125 6.1625,58.0125 L21.4098,58.0125 C21.4064799,58.0722652 21.3931986,58.132027 21.3931986,58.191799 L21.3931986,65.307234 C21.3931986,66.638674 22.4722736,67.714434 23.8003986,67.714434 C25.1318386,67.714434 26.2075986,66.635359 26.2075986,65.307234 L26.2075986,58.191799 C26.2075986,58.1320329 26.1943174,58.0722635 26.1909973,58.0125 L41.4382973,58.0125 C44.6059073,58.0125 47.1757973,55.44261 47.1757973,52.275 L47.1757973,6.375 C47.1757973,3.20739 44.6059073,0.6375 41.4382973,0.6375 L41.4375,0.6375 Z M20.6652,52.52745 C20.6652,53.0321375 20.2568005,53.443835 19.748815,53.443835 L9.893915,53.443835 C9.3892275,53.443835 8.97753,53.0354355 8.97753,52.52745 L8.97753,48.513155 C8.97753,48.0084675 9.3859295,47.59677 9.893915,47.59677 L19.752215,47.59677 C20.2569025,47.59677 20.6686,48.0051695 20.6686,48.513155 L20.6652,52.52745 Z M38.62145,52.52745 C38.62145,53.0321375 38.2130505,53.443835 37.705065,53.443835 L27.850165,53.443835 C27.3454775,53.443835 26.93378,53.0354355 26.93378,52.52745 L26.93378,48.513155 C26.93378,48.0084675 27.3421795,47.59677 27.850165,47.59677 L37.705065,47.6000901 C38.2097525,47.6000901 38.62145,48.0084896 38.62145,48.5164751 L38.62145,52.52745 Z M40.055825,41.27855 C40.055825,42.3045 39.2224255,43.137925 38.19645,43.137925 L9.4027,43.137925 C8.37675,43.137925 7.543325,42.3045255 7.543325,41.27855 L7.543325,8.0223 C7.543325,6.99635 8.3767245,6.162925 9.4027,6.162925 L38.19645,6.162925 C39.2224,6.162925 40.055825,6.9963245 40.055825,8.0223 L40.055825,41.27855 Z"/>
    </g>
  </g>
</svg>
