<svg xmlns="http://www.w3.org/2000/svg" width="108" height="108" viewBox="0 0 108 108">
  <g fill="none" transform="translate(.25)">
    <path fill="#00497E" d="M53.8457143,0 C83.5839331,0 107.691429,24.1074955 107.691429,53.8457143 C107.691429,83.5839331 83.5839331,107.691429 53.8457143,107.691429 C24.1074955,107.691429 0,83.5839331 0,53.8457143 C0,24.1074955 24.1074955,0 53.8457143,0 M53.8457143,1.53844898 C82.7347092,1.53844898 106.15298,24.9536424 106.15298,53.8457143 C106.15298,82.7377861 82.7347092,106.15298 53.8457143,106.15298 C24.9567193,106.15298 1.53844898,82.7377861 1.53844898,53.8457143 C1.53844898,24.9536424 24.9567193,1.53844898 53.8457143,1.53844898"/>
    <g fill="#FFF" transform="translate(15 30)">
      <path d="M77.328,23.0524138 C74.6771586,0.697655172 59.0466207,0.413793103 59.0466207,0.413793103 C59.0466207,0.413793103 54.1425103,0.475215724 50.9000276,2.97086897 C48.6888,4.67131034 47.2082483,7.1702069 46.8235034,10.3609655 C46.3903117,13.9492966 47.1726455,16.0506207 48.1392,17.3243586 L44.0109517,17.3243586 C43.9495291,17.3243586 43.8881048,17.3081942 43.8266814,17.3049617 L43.8266814,20.3373203 C43.888104,20.3373203 43.9495283,20.3567164 44.0109517,20.3567164 L55.7328828,20.3567164 C55.5486124,20.9644792 55.3417159,22.063613 55.4451641,23.8997785 L49.3837572,23.8997785 C46.9818538,23.8997785 44.8029021,24.7790888 43.0701848,26.1885509 L43.0701848,3.25199917 L38.57664,3.25199917 L38.57664,26.1885509 C37.6681986,25.4514861 36.6369434,24.869544 35.5120055,24.4719716 C35.4926094,24.4655065 35.4635139,24.4622739 35.4441178,24.455808 C34.4484488,24.1099018 33.384835,23.9030052 32.2663523,23.9030052 L22.3485592,23.9030052 C22.4520074,22.066757 22.2451109,20.9676397 22.0608406,20.3599432 L26.8937785,20.3599432 C29.6351578,20.3599432 32.121144,19.2511432 33.937944,17.4698466 L33.937944,23.2920811 C34.9917923,23.4634163 36.0036819,23.7996232 36.9703026,24.2812949 L36.9703026,17.4730742 C37.2289233,17.728459 37.5328047,17.9353556 37.8204819,18.1616508 L37.8204819,13.5646577 C37.2967771,12.581899 36.9703026,11.473099 36.9703026,10.2834439 L36.9703026,3.25541628 L33.937944,3.25541628 L33.937944,10.2834439 C33.937944,12.9601887 32.4185785,15.265099 30.2138061,16.4547542 C30.8862199,15.1390577 31.3096957,13.2187266 30.9638061,10.3642163 C30.5791109,7.17345766 29.0985095,4.6745611 26.8905095,2.97411972 C23.6447992,0.478450759 18.7439164,0.417043862 18.7439164,0.417043862 C18.747149,0.417043862 3.11991641,0.701526621 0.465847448,23.0556646 C-0.730262897,33.1091818 2.18888193,39.1935956 5.75784745,42.8531818 C10.1252681,47.3272783 12.9668681,47.3984508 12.9668681,47.3984508 C12.9668681,47.3984508 19.6910061,48.5363818 23.1014888,45.1258163 C26.5120543,41.7152508 26.2275302,35.9379542 26.2275302,35.9379542 C26.2275302,35.9379542 26.2275302,33.8528508 24.8083854,31.6772094 C23.3892406,29.4983404 21.3978199,28.0758852 21.3978199,28.0758852 C21.3978199,28.0758852 21.6305785,27.7396783 21.8698006,26.9347266 L32.2659385,26.9347266 C32.8478309,26.9347266 33.4038695,27.0446383 33.943704,27.1804204 C34.4965068,27.3194301 35.013773,27.5327901 35.5018833,27.7978742 C35.5277454,27.8140378 35.55684,27.8237363 35.585933,27.8398999 C36.0837757,28.1179192 36.5493261,28.4573537 36.9695743,28.8485619 C37.6161261,29.4466254 38.185133,30.1157619 38.5762502,30.9142999 L38.5762502,47.586024 L43.069795,47.586024 L43.069795,30.9142999 C44.2141812,28.5673481 46.6031743,26.9347688 49.3833674,26.9347688 L55.9199743,26.9347688 C56.1591964,27.7397288 56.391955,28.079155 56.391955,28.079155 C56.391955,28.079155 54.4038447,29.5016102 52.9813895,31.6804792 C51.5589343,33.8593481 51.5589343,35.941224 51.5589343,35.941224 C51.5589343,35.941224 51.2744516,41.7181895 54.6849757,45.1290861 C58.0954999,48.5399826 64.8195964,47.4017206 64.8195964,47.4017206 C64.8195964,47.4017206 67.6579688,47.3273669 72.0318447,42.8564516 C75.6040378,39.190493 78.519955,33.1066585 77.3270723,23.0523137 L77.328,23.0524138 Z"/>
      <path d="M33.9376552,47.5828966 L36.9700138,47.5828966 L36.9700138,29.8833103 C36.1618262,28.9425931 35.1240828,28.250731 33.9376552,27.9210207 L33.9376552,47.5828966 Z"/>
    </g>
  </g>
</svg>
